<?xml version="1.0" encoding="UTF-8"?>
<svg xmlns="http://www.w3.org/2000/svg" xmlns:xlink="http://www.w3.org/1999/xlink" width="598.74pt" height="195.12pt" viewBox="0 0 598.74 195.12" version="1.1">
<defs>
<clipPath id="clip1">
  <path d="M 499 82 L 598.738281 82 L 598.738281 130 L 499 130 Z M 499 82 "/>
</clipPath>
<clipPath id="clip2">
  <path d="M 297 40 L 329 40 L 329 195.121094 L 297 195.121094 Z M 297 40 "/>
</clipPath>
<clipPath id="clip3">
  <path d="M 291 34 L 335 34 L 335 195.121094 L 291 195.121094 Z M 291 34 "/>
</clipPath>
</defs>
<g id="surface1">
<path style=" stroke:none;fill-rule:nonzero;fill:rgb(0.39978%,34.098816%,70.199585%);fill-opacity:1;" d="M 80.742188 63.722656 L 120.125 63.722656 L 120.125 129.71875 L 93.875 129.71875 L 93.875 81.230469 L 73.636719 129.71875 L 46.625 129.71875 L 26.25 80.695313 L 26.25 129.71875 L 0 129.71875 L 0 63.722656 L 39.382813 63.722656 L 60.027344 111.457031 "/>
<path style=" stroke:none;fill-rule:nonzero;fill:rgb(0.39978%,34.098816%,70.199585%);fill-opacity:1;" d="M 159.578125 101.09375 L 180.703125 101.09375 L 180.703125 99.449219 C 180.703125 96.34375 180.082031 94.277344 178.835938 93.253906 C 177.589844 92.230469 175.160156 91.722656 171.539063 91.722656 L 168.648438 91.722656 C 165.15625 91.722656 162.769531 92.21875 161.492188 93.210938 C 160.214844 94.199219 159.578125 96.136719 159.578125 99.007813 Z M 202.578125 115.46875 C 202.035156 120.753906 199.578125 124.554688 195.203125 126.871094 C 190.824219 129.1875 183.945313 130.34375 174.5625 130.34375 L 165.089844 130.34375 C 154.675781 130.34375 147.363281 128.921875 143.148438 126.082031 C 138.933594 123.234375 136.828125 118.257813 136.828125 111.144531 L 136.828125 101.535156 C 136.828125 94.457031 138.933594 89.488281 143.148438 86.632813 C 147.363281 83.773438 154.675781 82.347656 165.089844 82.347656 L 174.5625 82.347656 C 184.976563 82.347656 192.289063 83.773438 196.503906 86.632813 C 200.71875 89.488281 202.828125 94.457031 202.828125 101.535156 L 202.828125 108.84375 L 159.578125 108.84375 L 159.578125 114.660156 C 159.578125 116.746094 160.238281 118.214844 161.5625 119.066406 C 162.882813 119.917969 165.199219 120.34375 168.515625 120.34375 L 171.402344 120.34375 C 174.492188 120.34375 176.664063 119.996094 177.917969 119.292969 C 179.171875 118.589844 179.933594 117.316406 180.203125 115.46875 "/>
<path style=" stroke:none;fill-rule:nonzero;fill:rgb(0.39978%,34.098816%,70.199585%);fill-opacity:1;" d="M 249.535156 94.097656 L 246.902344 94.097656 C 243.746094 94.097656 241.574219 94.644531 240.378906 95.738281 C 239.183594 96.832031 238.589844 99.199219 238.589844 102.835938 L 238.589844 110.023438 C 238.589844 113.632813 239.183594 115.984375 240.378906 117.082031 C 241.574219 118.171875 243.746094 118.71875 246.902344 118.71875 L 249.535156 118.71875 C 252.644531 118.71875 254.785156 118.1875 255.957031 117.125 C 257.128906 116.058594 257.714844 113.691406 257.714844 110.023438 L 257.714844 102.835938 C 257.714844 99.140625 257.128906 96.761719 255.957031 95.691406 C 254.785156 94.628906 252.644531 94.097656 249.535156 94.097656 M 280.464844 63.722656 L 280.464844 129.71875 L 258.390625 129.71875 L 258.660156 123.066406 C 256.675781 125.613281 254.132813 127.460938 251.023438 128.613281 C 247.914063 129.765625 243.945313 130.34375 239.125 130.34375 C 231.011719 130.34375 225.039063 128.800781 221.210938 125.707031 C 217.378906 122.617188 215.464844 117.773438 215.464844 111.175781 L 215.464844 101.546875 C 215.464844 94.941406 217.378906 90.089844 221.210938 86.992188 C 225.039063 83.894531 231.011719 82.347656 239.125 82.347656 C 243.675781 82.347656 247.527344 82.894531 250.683594 83.992188 C 253.835938 85.089844 256.179688 86.691406 257.714844 88.800781 L 257.714844 63.722656 "/>
<path style=" stroke:none;fill-rule:nonzero;fill:rgb(0.39978%,34.098816%,70.199585%);fill-opacity:1;" d="M 299.859375 82.972656 L 322.859375 82.972656 L 322.859375 129.722656 L 299.859375 129.722656 Z M 299.859375 63.722656 L 322.859375 63.722656 L 322.859375 75.347656 L 299.859375 75.347656 Z M 299.859375 63.722656 "/>
<path style=" stroke:none;fill-rule:nonzero;fill:rgb(0.39978%,34.098816%,70.199585%);fill-opacity:1;" d="M 404.859375 111.34375 C 404.859375 111.582031 404.878906 111.941406 404.925781 112.429688 C 404.96875 112.917969 404.992188 113.277344 404.992188 113.511719 C 404.992188 119.550781 402.828125 123.863281 398.5 126.457031 C 394.171875 129.050781 386.867188 130.34375 376.589844 130.34375 L 367.097656 130.34375 C 356.695313 130.34375 349.386719 128.929688 345.175781 126.101563 C 340.964844 123.273438 338.859375 118.324219 338.859375 111.253906 L 338.859375 101.441406 C 338.859375 94.398438 340.964844 89.453125 345.175781 86.609375 C 349.386719 83.769531 356.695313 82.347656 367.097656 82.347656 L 376.589844 82.347656 C 386.777344 82.347656 394.039063 83.628906 398.367188 86.1875 C 402.695313 88.746094 404.859375 93.015625 404.859375 98.984375 L 404.859375 100.21875 L 382.109375 100.21875 L 382.109375 99.777344 C 382.109375 97.394531 381.492188 95.75 380.257813 94.839844 C 379.023438 93.929688 376.789063 93.472656 373.558594 93.472656 L 370.53125 93.472656 C 367.121094 93.472656 364.84375 93.976563 363.699219 94.980469 C 362.554688 95.988281 361.984375 98.515625 361.984375 102.570313 L 361.984375 110.167969 C 361.984375 114.222656 362.554688 116.742188 363.699219 117.734375 C 364.84375 118.726563 367.121094 119.21875 370.53125 119.21875 L 373.558594 119.21875 C 376.835938 119.21875 379.078125 118.742188 380.289063 117.78125 C 381.5 116.824219 382.109375 115.046875 382.109375 112.449219 L 382.109375 111.34375 "/>
<path style=" stroke:none;fill-rule:nonzero;fill:rgb(0.39978%,34.098816%,70.199585%);fill-opacity:1;" d="M 440.347656 102.617188 L 440.347656 110.117188 C 440.347656 114.191406 440.921875 116.730469 442.066406 117.726563 C 443.210938 118.722656 445.492188 119.21875 448.90625 119.21875 L 451.671875 119.21875 C 455.039063 119.21875 457.285156 118.730469 458.410156 117.75 C 459.535156 116.765625 460.097656 114.222656 460.097656 110.117188 L 460.097656 102.617188 C 460.097656 98.484375 459.535156 95.925781 458.410156 94.941406 C 457.285156 93.964844 455.039063 93.472656 451.671875 93.472656 L 448.90625 93.472656 C 445.492188 93.472656 443.210938 93.976563 442.066406 94.988281 C 440.921875 96 440.347656 98.542969 440.347656 102.617188 M 417.222656 101.503906 C 417.222656 94.4375 419.328125 89.480469 423.539063 86.625 C 427.753906 83.773438 435.0625 82.347656 445.472656 82.347656 L 454.976563 82.347656 C 465.382813 82.347656 472.691406 83.773438 476.902344 86.625 C 481.113281 89.480469 483.222656 94.4375 483.222656 101.503906 L 483.222656 111.1875 C 483.222656 118.28125 481.113281 123.25 476.902344 126.085938 C 472.691406 128.925781 465.382813 130.34375 454.976563 130.34375 L 445.472656 130.34375 C 435.0625 130.34375 427.753906 128.925781 423.539063 126.085938 C 419.328125 123.25 417.222656 118.28125 417.222656 111.1875 "/>
<g clip-path="url(#clip1)" clip-rule="nonzero">
<path style=" stroke:none;fill-rule:nonzero;fill:rgb(0.39978%,34.098816%,70.199585%);fill-opacity:1;" d="M 499.617188 129.71875 L 499.617188 82.972656 L 521.316406 82.972656 L 521.042969 89.605469 C 522.660156 87.066406 524.964844 85.226563 527.957031 84.070313 C 530.949219 82.921875 534.941406 82.347656 539.933594 82.347656 C 545.375 82.347656 549.570313 82.929688 552.515625 84.097656 C 555.460938 85.261719 557.675781 87.1875 559.160156 89.871094 C 560.734375 87.246094 563.042969 85.335938 566.082031 84.140625 C 569.121094 82.941406 573.1875 82.347656 578.277344 82.347656 C 585.929688 82.347656 591.253906 83.535156 594.25 85.914063 C 597.246094 88.292969 598.742188 92.761719 598.742188 99.316406 L 598.742188 129.71875 L 576.367188 129.71875 L 576.367188 102.605469 C 576.367188 99.136719 575.839844 96.917969 574.789063 95.9375 C 573.734375 94.960938 571.460938 94.472656 567.96875 94.472656 C 565.011719 94.472656 562.988281 95.027344 561.890625 96.140625 C 560.792969 97.25 560.242188 99.699219 560.242188 103.492188 L 560.242188 129.71875 L 538.117188 129.71875 L 538.117188 102.605469 C 538.117188 99.136719 537.589844 96.917969 536.539063 95.9375 C 535.484375 94.960938 533.210938 94.472656 529.71875 94.472656 C 526.761719 94.472656 524.738281 95.027344 523.640625 96.140625 C 522.542969 97.25 521.992188 99.699219 521.992188 103.492188 L 521.992188 129.71875 "/>
</g>
<g clip-path="url(#clip2)" clip-rule="nonzero">
<path style=" stroke:none;fill-rule:evenodd;fill:rgb(0.39978%,34.098816%,70.199585%);fill-opacity:1;" d="M 319.414063 134.558594 C 323.777344 134.558594 322.828125 139.621094 319.472656 139.621094 L 314.644531 139.621094 L 312.960938 195.105469 L 311.417969 139.621094 L 306.507813 139.621094 C 302.617188 139.621094 303.078125 134.363281 306.101563 134.429688 C 301.074219 134.488281 297.042969 130.652344 297.042969 125.839844 L 297.042969 40.128906 L 328.488281 40.128906 L 328.488281 125.839844 C 328.488281 130.652344 324.386719 134.613281 319.414063 134.558594 "/>
</g>
<g clip-path="url(#clip3)" clip-rule="nonzero">
<path style="fill:none;stroke-width:10.16;stroke-linecap:butt;stroke-linejoin:miter;stroke:rgb(0.39978%,34.098816%,70.199585%);stroke-opacity:1;stroke-miterlimit:4;" d="M 3194.140625 605.614063 C 3237.773438 605.614063 3228.28125 554.989063 3194.726563 554.989063 L 3146.445313 554.989063 L 3129.609375 0.145313 L 3114.179688 554.989063 L 3065.078125 554.989063 C 3026.171875 554.989063 3030.78125 607.567188 3061.015625 606.903125 C 3010.742188 606.317188 2970.429688 644.676563 2970.429688 692.801563 L 2970.429688 1549.910938 L 3284.882813 1549.910938 L 3284.882813 692.801563 C 3284.882813 644.676563 3243.867188 605.067188 3194.140625 605.614063 " transform="matrix(0.1,0,0,-0.1,0,195.12)"/>
</g>
<path style=" stroke:none;fill-rule:evenodd;fill:rgb(34.098816%,68.998718%,12.199402%);fill-opacity:1;" d="M 312.757813 0.00390625 C 320.765625 0.00390625 327.390625 6.640625 327.390625 14.703125 C 327.390625 22.765625 320.765625 29.390625 312.757813 29.390625 C 304.765625 29.390625 298.140625 22.765625 298.140625 14.703125 C 298.140625 6.640625 304.765625 0.00390625 312.757813 0.00390625 "/>
<path style="fill:none;stroke-width:38.99;stroke-linecap:butt;stroke-linejoin:miter;stroke:rgb(0.39978%,34.098816%,70.199585%);stroke-opacity:1;stroke-miterlimit:4;" d="M 2691.875 1570.10625 C 2691.875 1650.73125 2758.242188 1716.98125 2838.242188 1716.98125 C 2918.789063 1716.98125 2985.195313 1650.73125 2984.492188 1571.395313 L 3270.664063 1571.395313 C 3270 1650.73125 3336.40625 1716.98125 3416.992188 1716.98125 C 3496.914063 1716.98125 3563.320313 1650.73125 3563.320313 1570.10625 " transform="matrix(0.1,0,0,-0.1,0,195.12)"/>
</g>
</svg>
